<?xml version="1.0" encoding="UTF-8" standalone="no"?>
<!DOCTYPE svg PUBLIC "-//W3C//DTD SVG 1.1//EN" "http://www.w3.org/Graphics/SVG/1.1/DTD/svg11.dtd">
<svg width="100%" height="100%" viewBox="0 0 1605 758" version="1.1" xmlns="http://www.w3.org/2000/svg" xmlns:xlink="http://www.w3.org/1999/xlink" xml:space="preserve" xmlns:serif="http://www.serif.com/" style="fill-rule:evenodd;clip-rule:evenodd;stroke-linejoin:round;stroke-miterlimit:2;">
    <path d="M175.3,332.8L193.2,345.2L332.1,156.9L314.2,144.4L303.8,82.7L286.2,70.4L94.2,330.7L111.7,342.9L175.3,332.8ZM300.2,419.8C362.9,368.5 439.9,404.4 500.7,447.7L530.7,407.1C468.8,364.5 408.9,305.6 439.4,232.5C440.6,230.8 360.7,177.7 360.5,176.7L221.5,365L300.2,419.8ZM61.6,299.4L213.6,93.4L84,139.4L54.1,306C57,304.3 59.6,302.1 61.6,299.4Z" style="fill:rgb(48,48,52);fill-rule:nonzero;"/>
    <path d="M323.1,54.4L335.8,63.3L346.3,125.1L459.5,204C510.9,252 395.4,273.2 557.2,384C565.4,389.7 569.6,399.6 568.1,409.5L614,441.5L597.9,539.3L515,481.4C506.1,485.9 494.9,485.3 486.7,479.5C326.5,366.1 343.7,479 279.9,447.3L166.8,368.4L103.2,378.6L51.3,342.4C50.1,342.6 48.8,342.8 47.6,342.9L22.4,482.7L297.6,706.3L634.4,586.6L696,243.3L420.9,19.7L323.1,54.4Z" style="fill:rgb(48,48,52);fill-rule:nonzero;"/>
    <path d="M1577.9,427C1569.2,420.4 1527.7,420 1515,417C1508.2,415.9 1502.3,415.6 1495.5,416.2C1469.8,415.4 1444.2,413.3 1418.5,415.3C1389.4,414.5 1360.1,415.7 1331.1,412.6C1324.5,412.1 1318,411.4 1311.4,411.2C1305.5,412.2 1299.6,413 1293.6,411.6C1259.1,413.5 1224.3,407.8 1189.5,408.9C1108.7,409.2 1027.6,410.6 946.6,408.6C931.1,407.8 915.7,407.2 900.3,409.4C884.1,407.3 867.9,409.1 851.6,407.9C836.3,408.4 821.1,410.8 805.9,407.9C774.9,407.6 743.9,409.8 712.8,409.6C687.9,407.4 662.9,407.5 637.9,407L625.6,586C752,580.7 1441.4,598.4 1548,575C1561.1,565.2 1560,553.4 1572.7,491.9C1581.4,449.8 1586.4,433.4 1577.9,427ZM773.6,551.5L765,551.5L772.2,508.1L718.6,508.1L711.4,551.5L702.8,551.5L718.5,457L727.1,457L719.9,500.3L773.5,500.3L780.7,457L789.3,457L773.6,551.5ZM805.1,551.5L796.5,551.5L812.2,457L820.8,457L805.1,551.5ZM840.5,526.1C850.3,559.5 898.4,543.7 900.9,513.5L873.4,513.5L874.8,505.7L910.7,505.7C908.9,523.2 901.4,540.3 885.3,548C866.4,558 838.4,552.7 832.6,529.9C825.8,504.9 837.8,469.4 863.4,459C884.4,449 913.9,461 913.1,486.4L904.2,486.4C903.6,465.2 879,458 862.6,468.4C844.2,478.3 835.5,506.7 840.5,526.1ZM993.3,551.5L984.7,551.5L991.9,508.1L938.3,508.1L931.1,551.5L922.5,551.5L938,457L946.6,457L939.4,500.3L993,500.3L1000.2,457L1008.8,457L993.3,551.5ZM1069.9,551.5L1016.2,551.5L1031.9,457L1040.5,457L1026.1,543.8L1071.2,543.8L1069.9,551.5ZM1093.9,551.5L1085.3,551.5L1101,457L1109.6,457L1093.9,551.5ZM1129.2,526.1C1139,559.5 1187.1,543.7 1189.6,513.5L1162,513.5L1163.4,505.7L1199.3,505.7C1197.5,523.2 1190,540.3 1173.9,548C1155,558 1127,552.7 1121.2,529.9C1114.4,504.9 1126.4,469.4 1152,459C1173,449 1202.5,461 1201.7,486.4L1192.8,486.4C1192.2,465.2 1167.6,458 1151.2,468.4C1132.9,478.3 1124.2,506.7 1129.2,526.1ZM1282,551.5L1273.4,551.5L1280.6,508.1L1227,508.1L1219.8,551.5L1211.2,551.5L1226.9,457L1235.5,457L1228.3,500.3L1281.9,500.3L1289.1,457L1297.7,457L1282,551.5ZM1350.2,464.8L1335.8,551.6L1327.2,551.6L1341.6,464.8L1311.6,464.8L1312.9,457L1381.5,457L1380.2,464.8L1350.2,464.8ZM1450.3,464.8L1404.1,464.8L1398.2,500.4L1441.5,500.4L1440.2,508.2L1396.9,508.2L1391,543.9L1438.1,543.9L1436.8,551.7L1381,551.7L1396.7,457.2L1451.5,457.2L1450.3,464.8ZM1525.2,485.3C1523.3,497.7 1515,507.9 1502.9,511.5L1518.1,551.5L1508.2,551.5L1493.9,513.1C1491.9,513.4 1470.7,513.2 1468.2,513.2L1461.9,551.4L1453.3,551.4L1469,456.9C1491.1,457.6 1531,450.1 1525.2,485.3Z" style="fill:rgb(48,48,52);fill-rule:nonzero;"/>
    <path d="M1509.9,467.3C1503.7,463.1 1483.9,465.2 1476.3,464.8L1469.5,505.5C1477.8,505 1496.8,507 1504,503.1C1516.8,497.7 1523.1,475.1 1509.9,467.3ZM722.3,417.5L751.3,243C783.1,246.5 859.5,230.8 877.7,263.5C891.1,289.2 867.9,320.9 840.6,324.8L840.3,326.5C877.4,326.8 883.7,369.5 862.4,393.6C848.5,410.1 827.2,417.6 804.5,417.5L722.3,417.5ZM776.2,379.7C786.9,379.3 808.7,381.7 816.9,375.2C826.8,369.1 829.3,350.1 817,345.1C810.2,341.4 789.9,343.3 782,342.9L776.2,379.7ZM787.1,313.5C801.9,313.4 827.3,316.7 830.4,296.8C833.8,275.7 805.4,280.6 792.6,280.1L787.1,313.5ZM878.5,417.5L907.5,243L954.9,243L932.4,379.4L1003,379.4L996.5,417.6L878.5,417.6L878.5,417.5ZM1139.3,417.5L1190.4,417.5L1161.8,243L1097,243L1010.4,417.5L1061.5,417.5L1077.2,384.1L1134.8,384.1L1139.3,417.5ZM1093.9,348.6L1120.9,291L1122.3,291L1130.1,348.6L1093.9,348.6ZM1375.1,308.4L1327.7,308.4C1331.6,280.6 1300.5,275.9 1281.9,288C1266.9,297.7 1259.7,314.4 1256.4,333C1254.2,349.3 1253.7,364 1265.2,373.7C1283,385.6 1313.7,376 1319.8,354.5L1367.5,354.5C1354.7,408.6 1285.4,437.5 1237.6,409.2C1194.8,384.5 1201.9,315.3 1227.5,279.6C1245.6,254.3 1273.9,240.6 1304.5,240.7C1345.4,239.1 1380.2,265.2 1375.1,308.4ZM1373.4,417.5L1402.4,243L1449.8,243L1438.2,313.6L1440.6,313.6L1504.7,243L1559.9,243L1488.3,320.7L1536.8,427.4L1479.9,427.4L1447.7,352L1428.3,372.8L1420.8,417.5L1373.4,417.5Z" style="fill:rgb(48,48,52);fill-rule:nonzero;"/>
    <g transform="matrix(1,0,0,1,-26.8778,-33.5659)">
        <g transform="matrix(101.576,0,0,101.576,762.68,686.934)">
            <path d="M0.001,-0L0.122,-0.727L0.634,-0.727L0.607,-0.568L0.293,-0.568L0.273,-0.443L0.555,-0.443L0.528,-0.284L0.246,-0.284L0.199,-0L0.001,-0Z" style="fill:rgb(48,48,52);fill-rule:nonzero;"/>
        </g>
        <g transform="matrix(101.576,0,0,101.576,821.981,686.934)">
            <path d="M0.764,-0.351C0.751,-0.272 0.725,-0.205 0.685,-0.152C0.646,-0.098 0.598,-0.058 0.542,-0.031C0.486,-0.004 0.426,0.01 0.362,0.01C0.294,0.01 0.235,-0.005 0.185,-0.034C0.134,-0.064 0.098,-0.107 0.075,-0.164C0.052,-0.221 0.047,-0.291 0.061,-0.374C0.074,-0.453 0.1,-0.519 0.139,-0.573C0.179,-0.627 0.226,-0.668 0.283,-0.696C0.34,-0.723 0.4,-0.737 0.464,-0.737C0.532,-0.737 0.591,-0.722 0.641,-0.692C0.691,-0.663 0.728,-0.619 0.75,-0.561C0.773,-0.504 0.778,-0.434 0.764,-0.351ZM0.565,-0.374C0.572,-0.415 0.572,-0.45 0.567,-0.479C0.561,-0.507 0.549,-0.529 0.531,-0.543C0.513,-0.558 0.488,-0.565 0.457,-0.565C0.422,-0.565 0.391,-0.557 0.364,-0.54C0.337,-0.523 0.315,-0.498 0.297,-0.466C0.279,-0.434 0.267,-0.396 0.26,-0.351C0.252,-0.309 0.252,-0.274 0.258,-0.246C0.264,-0.218 0.277,-0.197 0.295,-0.183C0.314,-0.169 0.339,-0.162 0.369,-0.162C0.404,-0.162 0.434,-0.17 0.461,-0.187C0.488,-0.203 0.51,-0.227 0.527,-0.259C0.545,-0.29 0.558,-0.329 0.565,-0.374Z" style="fill:rgb(48,48,52);fill-rule:nonzero;"/>
        </g>
        <g transform="matrix(101.576,0,0,101.576,902.78,686.934)">
            <path d="M0.001,-0L0.122,-0.727L0.436,-0.727C0.49,-0.727 0.536,-0.717 0.573,-0.698C0.61,-0.678 0.637,-0.65 0.653,-0.613C0.669,-0.576 0.673,-0.532 0.665,-0.48C0.656,-0.428 0.637,-0.384 0.608,-0.348C0.579,-0.313 0.543,-0.286 0.498,-0.267C0.453,-0.249 0.403,-0.24 0.348,-0.24L0.161,-0.24L0.186,-0.393L0.334,-0.393C0.357,-0.393 0.377,-0.396 0.395,-0.402C0.412,-0.408 0.427,-0.417 0.438,-0.43C0.448,-0.442 0.455,-0.459 0.459,-0.48C0.462,-0.501 0.46,-0.518 0.454,-0.531C0.447,-0.544 0.436,-0.554 0.421,-0.56C0.405,-0.566 0.386,-0.57 0.364,-0.57L0.294,-0.57L0.199,-0L0.001,-0ZM0.483,-0.334L0.609,-0L0.395,-0L0.273,-0.334L0.483,-0.334Z" style="fill:rgb(48,48,52);fill-rule:nonzero;"/>
        </g>
        <g transform="matrix(101.576,0,0,101.576,971.604,686.934)">
        </g>
        <g transform="matrix(101.576,0,0,101.576,991.804,686.934)">
            <path d="M0.764,-0.351C0.751,-0.272 0.725,-0.205 0.685,-0.152C0.646,-0.098 0.598,-0.058 0.542,-0.031C0.486,-0.004 0.426,0.01 0.362,0.01C0.294,0.01 0.235,-0.005 0.185,-0.034C0.134,-0.064 0.098,-0.107 0.075,-0.164C0.052,-0.221 0.047,-0.291 0.061,-0.374C0.074,-0.453 0.1,-0.519 0.139,-0.573C0.179,-0.627 0.226,-0.668 0.283,-0.696C0.34,-0.723 0.4,-0.737 0.464,-0.737C0.532,-0.737 0.591,-0.722 0.641,-0.692C0.691,-0.663 0.728,-0.619 0.75,-0.561C0.773,-0.504 0.778,-0.434 0.764,-0.351ZM0.565,-0.374C0.572,-0.415 0.572,-0.45 0.567,-0.479C0.561,-0.507 0.549,-0.529 0.531,-0.543C0.513,-0.558 0.488,-0.565 0.457,-0.565C0.422,-0.565 0.391,-0.557 0.364,-0.54C0.337,-0.523 0.315,-0.498 0.297,-0.466C0.279,-0.434 0.267,-0.396 0.26,-0.351C0.252,-0.309 0.252,-0.274 0.258,-0.246C0.264,-0.218 0.277,-0.197 0.295,-0.183C0.314,-0.169 0.339,-0.162 0.369,-0.162C0.404,-0.162 0.434,-0.17 0.461,-0.187C0.488,-0.203 0.51,-0.227 0.527,-0.259C0.545,-0.29 0.558,-0.329 0.565,-0.374Z" style="fill:rgb(48,48,52);fill-rule:nonzero;"/>
        </g>
        <g transform="matrix(101.576,0,0,101.576,1072.6,686.934)">
            <path d="M0.001,-0L0.122,-0.727L0.438,-0.727C0.493,-0.727 0.538,-0.72 0.574,-0.705C0.609,-0.69 0.634,-0.669 0.649,-0.642C0.664,-0.614 0.668,-0.582 0.662,-0.545C0.657,-0.519 0.647,-0.495 0.631,-0.473C0.616,-0.451 0.596,-0.432 0.573,-0.417C0.549,-0.402 0.523,-0.392 0.494,-0.386L0.493,-0.379C0.524,-0.378 0.551,-0.371 0.575,-0.356C0.598,-0.341 0.615,-0.321 0.626,-0.295C0.637,-0.27 0.639,-0.24 0.634,-0.206C0.627,-0.166 0.611,-0.131 0.585,-0.1C0.559,-0.069 0.526,-0.044 0.484,-0.027C0.443,-0.009 0.396,-0 0.344,-0L0.001,-0ZM0.226,-0.158L0.318,-0.158C0.351,-0.158 0.377,-0.164 0.395,-0.176C0.414,-0.189 0.425,-0.207 0.429,-0.232C0.432,-0.249 0.43,-0.263 0.425,-0.275C0.419,-0.287 0.409,-0.296 0.396,-0.302C0.382,-0.308 0.366,-0.311 0.345,-0.311L0.25,-0.311L0.226,-0.158ZM0.271,-0.433L0.352,-0.433C0.369,-0.433 0.385,-0.436 0.399,-0.441C0.413,-0.447 0.425,-0.455 0.434,-0.465C0.444,-0.476 0.449,-0.488 0.452,-0.503C0.455,-0.526 0.45,-0.543 0.435,-0.555C0.421,-0.567 0.402,-0.572 0.378,-0.572L0.294,-0.572L0.271,-0.433Z" style="fill:rgb(48,48,52);fill-rule:nonzero;"/>
        </g>
        <g transform="matrix(101.576,0,0,101.576,1140.42,686.934)">
            <path d="M0.476,-0.5C0.478,-0.523 0.472,-0.542 0.459,-0.555C0.445,-0.569 0.423,-0.575 0.391,-0.575C0.37,-0.575 0.353,-0.573 0.339,-0.568C0.326,-0.563 0.315,-0.557 0.308,-0.549C0.301,-0.54 0.296,-0.531 0.294,-0.52C0.292,-0.511 0.292,-0.504 0.294,-0.496C0.297,-0.49 0.302,-0.483 0.309,-0.478C0.316,-0.472 0.326,-0.467 0.338,-0.462C0.35,-0.458 0.364,-0.454 0.381,-0.45L0.438,-0.438C0.476,-0.429 0.509,-0.418 0.535,-0.404C0.562,-0.39 0.583,-0.374 0.598,-0.355C0.613,-0.336 0.623,-0.315 0.627,-0.291C0.632,-0.268 0.633,-0.242 0.628,-0.214C0.62,-0.167 0.601,-0.126 0.572,-0.093C0.543,-0.06 0.505,-0.035 0.458,-0.017C0.411,-0 0.357,0.009 0.295,0.009C0.232,0.009 0.179,-0.001 0.135,-0.02C0.091,-0.038 0.059,-0.067 0.04,-0.106C0.02,-0.145 0.016,-0.195 0.026,-0.256L0.213,-0.256C0.21,-0.233 0.213,-0.215 0.22,-0.2C0.228,-0.184 0.24,-0.173 0.257,-0.165C0.274,-0.157 0.295,-0.153 0.32,-0.153C0.341,-0.153 0.359,-0.156 0.374,-0.161C0.389,-0.166 0.401,-0.174 0.41,-0.183C0.419,-0.192 0.424,-0.203 0.426,-0.214C0.428,-0.225 0.426,-0.235 0.42,-0.244C0.415,-0.252 0.404,-0.26 0.39,-0.267C0.375,-0.274 0.354,-0.28 0.328,-0.286L0.259,-0.301C0.197,-0.315 0.15,-0.339 0.119,-0.371C0.087,-0.404 0.076,-0.449 0.085,-0.506C0.093,-0.552 0.112,-0.593 0.142,-0.627C0.173,-0.662 0.212,-0.689 0.26,-0.708C0.307,-0.728 0.36,-0.737 0.418,-0.737C0.476,-0.737 0.525,-0.727 0.565,-0.708C0.605,-0.688 0.633,-0.661 0.651,-0.625C0.668,-0.589 0.673,-0.548 0.665,-0.5L0.476,-0.5Z" style="fill:rgb(48,48,52);fill-rule:nonzero;"/>
        </g>
        <g transform="matrix(101.576,0,0,101.576,1208.09,686.934)">
            <path d="M0.32,-0.727L0.199,-0L0.001,-0L0.122,-0.727L0.32,-0.727Z" style="fill:rgb(48,48,52);fill-rule:nonzero;"/>
        </g>
        <g transform="matrix(101.576,0,0,101.576,1237.66,686.934)">
            <path d="M0.286,-0L0.001,-0L0.122,-0.727L0.395,-0.727C0.47,-0.727 0.532,-0.712 0.582,-0.682C0.633,-0.652 0.668,-0.609 0.689,-0.553C0.71,-0.497 0.714,-0.431 0.702,-0.354C0.689,-0.279 0.664,-0.216 0.627,-0.163C0.589,-0.11 0.542,-0.07 0.483,-0.042C0.425,-0.014 0.359,-0 0.286,-0ZM0.227,-0.168L0.298,-0.168C0.334,-0.168 0.366,-0.174 0.395,-0.186C0.423,-0.199 0.447,-0.221 0.466,-0.25C0.485,-0.28 0.499,-0.321 0.507,-0.374C0.515,-0.423 0.515,-0.461 0.506,-0.488C0.498,-0.515 0.482,-0.533 0.458,-0.544C0.434,-0.554 0.403,-0.56 0.365,-0.56L0.292,-0.56L0.227,-0.168Z" style="fill:rgb(48,48,52);fill-rule:nonzero;"/>
        </g>
        <g transform="matrix(101.576,0,0,101.576,1312.12,686.934)">
            <path d="M0.32,-0.727L0.199,-0L0.001,-0L0.122,-0.727L0.32,-0.727Z" style="fill:rgb(48,48,52);fill-rule:nonzero;"/>
        </g>
        <g transform="matrix(101.576,0,0,101.576,1341.69,686.934)">
            <path d="M0.19,-0L-0.023,-0L0.338,-0.727L0.608,-0.727L0.727,-0L0.514,-0L0.443,-0.527L0.438,-0.527L0.19,-0ZM0.199,-0.287L0.599,-0.287L0.574,-0.139L0.173,-0.139L0.199,-0.287Z" style="fill:rgb(48,48,52);fill-rule:nonzero;"/>
        </g>
        <g transform="matrix(101.576,0,0,101.576,1422.49,686.934)">
            <path d="M0.751,-0.727L0.631,-0L0.466,-0L0.267,-0.382L0.263,-0.382L0.199,-0L0.001,-0L0.122,-0.727L0.29,-0.727L0.486,-0.347L0.491,-0.347L0.554,-0.727L0.751,-0.727Z" style="fill:rgb(48,48,52);fill-rule:nonzero;"/>
        </g>
        <g transform="matrix(101.576,0,0,101.576,1495.93,686.934)">
        </g>
    </g>
</svg>
